<svg width="880" viewBox="0 0 880 1000" xmlns="http://www.w3.org/2000/svg" role="img" font-family="-apple-system, 'Segoe UI', 'Noto Sans SC', 'PingFang SC', sans-serif">
<title>OpenChip end-to-end framework</title>
<desc>AI agent loop on top; main flow: workload analysis, architecture exploration, spec contract, three parallel tracks (DV, RTL+formal, software), HW/SW co-verification, physical implementation, gate-level verification, release with evidence package.</desc>
<defs><marker id="ar" viewBox="0 0 10 10" refX="8" refY="5" markerWidth="6" markerHeight="6" orient="auto-start-reverse"><path d="M2 1L8 5L2 9" fill="none" stroke="#888780" stroke-width="1.6" stroke-linecap="round" stroke-linejoin="round"/></marker></defs>

<rect x="20" y="20" width="840" height="100" rx="8" fill="none" stroke="#888780" stroke-dasharray="5 4"/>
<text x="40" y="42" font-size="13" fill="#888780">AI agent 介入模式 — 每个环节相同的闭环</text>
<rect x="40" y="52" width="170" height="44" rx="6" fill="#F1EFE8" stroke="#888780"/>
<text x="125" y="70" font-size="13" font-weight="600" fill="#2C2C2A" text-anchor="middle">生成产物</text>
<text x="125" y="88" font-size="10.5" fill="#5F5E5A" text-anchor="middle">spec · RTL · tb · 固件</text>
<line x1="214" y1="74" x2="246" y2="74" stroke="#888780" stroke-width="1.5" marker-end="url(#ar)"/>
<rect x="250" y="52" width="170" height="44" rx="6" fill="#F1EFE8" stroke="#888780"/>
<text x="335" y="70" font-size="13" font-weight="600" fill="#2C2C2A" text-anchor="middle">调用工具</text>
<text x="335" y="88" font-size="10.5" fill="#5F5E5A" text-anchor="middle">仿真 · formal · PnR</text>
<line x1="424" y1="74" x2="456" y2="74" stroke="#888780" stroke-width="1.5" marker-end="url(#ar)"/>
<rect x="460" y="52" width="170" height="44" rx="6" fill="#F1EFE8" stroke="#888780"/>
<text x="545" y="70" font-size="13" font-weight="600" fill="#2C2C2A" text-anchor="middle">读诊断迭代</text>
<text x="545" y="88" font-size="10.5" fill="#5F5E5A" text-anchor="middle">机器可读输出</text>
<line x1="634" y1="74" x2="666" y2="74" stroke="#888780" stroke-width="1.5" marker-end="url(#ar)"/>
<rect x="670" y="52" width="170" height="44" rx="6" fill="#F1EFE8" stroke="#888780"/>
<text x="755" y="70" font-size="13" font-weight="600" fill="#2C2C2A" text-anchor="middle">质量门仲裁</text>
<text x="755" y="88" font-size="10.5" fill="#5F5E5A" text-anchor="middle">过门才算数</text>
<path d="M755 96 L755 108 L125 108 L125 100" fill="none" stroke="#888780" stroke-width="1.2" stroke-dasharray="4 3" marker-end="url(#ar)"/>

<rect x="220" y="148" width="440" height="72" rx="6" fill="#F1EFE8" stroke="#888780"/>
<text x="244" y="174" font-size="14" font-weight="600" fill="#2C2C2A">① Workload 分析</text>
<text x="244" y="194" font-size="12" fill="#5F5E5A">operator profiling · 面积/频率约束</text>
<text x="244" y="211" font-size="11" font-family="'SF Mono', Consolas, monospace" fill="#5F5E5A">PyTorch · ONNX</text>
<line x1="440" y1="220" x2="440" y2="242" stroke="#888780" stroke-width="1.5" marker-end="url(#ar)"/>

<rect x="220" y="246" width="440" height="72" rx="6" fill="#F1EFE8" stroke="#888780"/>
<text x="244" y="272" font-size="14" font-weight="600" fill="#2C2C2A">② 架构探索</text>
<text x="244" y="292" font-size="12" fill="#5F5E5A">design space exploration · cost model → ADR</text>
<text x="244" y="309" font-size="11" font-family="'SF Mono', Consolas, monospace" fill="#5F5E5A">Timeloop · Accelergy</text>
<line x1="440" y1="318" x2="440" y2="338" stroke="#888780" stroke-width="1.5" marker-end="url(#ar)"/>

<rect x="20" y="342" width="840" height="72" rx="6" fill="#FAECE7" stroke="#D85A30"/>
<text x="44" y="368" font-size="14" font-weight="600" fill="#4A1B0C">③ Spec — 软硬件契约, 唯一真理源</text>
<text x="44" y="388" font-size="12" fill="#993C1D">programmer's model / TRM · ISA · memory map · register map · 量化算术规则</text>
<text x="44" y="405" font-size="11" font-family="'SF Mono', Consolas, monospace" fill="#993C1D">Markdown · SystemRDL (PeakRDL)</text>
<line x1="155" y1="414" x2="155" y2="436" stroke="#888780" stroke-width="1.5" marker-end="url(#ar)"/>
<line x1="440" y1="414" x2="440" y2="436" stroke="#888780" stroke-width="1.5" marker-end="url(#ar)"/>
<line x1="725" y1="414" x2="725" y2="436" stroke="#888780" stroke-width="1.5" marker-end="url(#ar)"/>

<rect x="20" y="440" width="270" height="100" rx="6" fill="#EEEDFE" stroke="#534AB7"/>
<text x="40" y="466" font-size="14" font-weight="600" fill="#26215C">④a DV 先行</text>
<text x="40" y="486" font-size="12" fill="#3C3489">vplan · golden model · 先红</text>
<text x="40" y="504" font-size="12" fill="#3C3489">constrained-random · coverage</text>
<text x="40" y="524" font-size="11" font-family="'SF Mono', Consolas, monospace" fill="#3C3489">cocotb · Verilator · RISCOF</text>

<rect x="305" y="440" width="270" height="100" rx="6" fill="#E1F5EE" stroke="#1D9E75"/>
<text x="325" y="466" font-size="14" font-weight="600" fill="#04342C">④b RTL + Formal</text>
<text x="325" y="486" font-size="12" fill="#0F6E56">RTL design · lint · 红→绿</text>
<text x="325" y="504" font-size="12" fill="#0F6E56">property verification (BMC)</text>
<text x="325" y="524" font-size="11" font-family="'SF Mono', Consolas, monospace" fill="#0F6E56">SV · Verible · SymbiYosys</text>

<rect x="590" y="440" width="270" height="100" rx="6" fill="#E1F5EE" stroke="#1D9E75"/>
<text x="610" y="466" font-size="14" font-weight="600" fill="#04342C">④c 软件栈</text>
<text x="610" y="486" font-size="12" fill="#0F6E56">firmware · compiler · runtime</text>
<text x="610" y="504" font-size="12" fill="#0F6E56">bit-accurate ISS (功能模型)</text>
<text x="610" y="524" font-size="11" font-family="'SF Mono', Consolas, monospace" fill="#0F6E56">RISC-V GCC · QEMU/Renode</text>

<line x1="155" y1="540" x2="155" y2="556" stroke="#888780" stroke-width="1.5"/>
<line x1="440" y1="540" x2="440" y2="556" stroke="#888780" stroke-width="1.5"/>
<line x1="725" y1="540" x2="725" y2="556" stroke="#888780" stroke-width="1.5"/>
<line x1="155" y1="556" x2="725" y2="556" stroke="#888780" stroke-width="1.5"/>
<line x1="440" y1="556" x2="440" y2="566" stroke="#888780" stroke-width="1.5" marker-end="url(#ar)"/>

<rect x="220" y="570" width="440" height="72" rx="6" fill="#EEEDFE" stroke="#534AB7"/>
<text x="244" y="596" font-size="14" font-weight="600" fill="#26215C">⑤ HW/SW co-verification</text>
<text x="244" y="616" font-size="12" fill="#3C3489">lock-step co-simulation · 同一份二进制两边一致</text>
<text x="244" y="633" font-size="11" font-family="'SF Mono', Consolas, monospace" fill="#3C3489">Renode + Verilator</text>
<rect x="690" y="580" width="170" height="52" rx="6" fill="none" stroke="#888780" stroke-dasharray="5 4"/>
<text x="706" y="601" font-size="13" fill="#888780">可选 · FPGA 原型</text>
<text x="706" y="620" font-size="11" fill="#888780">加速软件测试</text>
<line x1="660" y1="606" x2="690" y2="606" stroke="#888780" stroke-width="1" stroke-dasharray="4 3"/>
<line x1="440" y1="642" x2="440" y2="662" stroke="#888780" stroke-width="1.5" marker-end="url(#ar)"/>

<rect x="220" y="666" width="440" height="72" rx="6" fill="#E1F5EE" stroke="#1D9E75"/>
<text x="244" y="692" font-size="14" font-weight="600" fill="#04342C">⑥ 物理实现</text>
<text x="244" y="712" font-size="12" fill="#0F6E56">synthesis · STA · place-and-route · signoff (DRC/LVS)</text>
<text x="244" y="729" font-size="11" font-family="'SF Mono', Consolas, monospace" fill="#0F6E56">Yosys · OpenSTA · LibreLane · Magic/KLayout/Netgen</text>
<line x1="440" y1="738" x2="440" y2="758" stroke="#888780" stroke-width="1.5" marker-end="url(#ar)"/>

<rect x="220" y="762" width="440" height="72" rx="6" fill="#EEEDFE" stroke="#534AB7"/>
<text x="244" y="788" font-size="14" font-weight="600" fill="#26215C">⑦ 门级验证</text>
<text x="244" y="808" font-size="12" fill="#3C3489">gate-level simulation + SDF · 重跑同一份固件</text>
<text x="244" y="825" font-size="11" font-family="'SF Mono', Consolas, monospace" fill="#3C3489">Icarus / Verilator</text>
<line x1="440" y1="834" x2="440" y2="854" stroke="#888780" stroke-width="1.5" marker-end="url(#ar)"/>

<rect x="220" y="858" width="440" height="78" rx="6" fill="#F1EFE8" stroke="#888780"/>
<text x="244" y="884" font-size="14" font-weight="600" fill="#2C2C2A">⑧ 发布 — 证据包 (evidence package)</text>
<text x="244" y="904" font-size="12" fill="#5F5E5A">coverage · formal · co-sim · signoff · GL-sim 全绿, 人人可复现</text>
<text x="244" y="921" font-size="11" font-family="'SF Mono', Consolas, monospace" fill="#5F5E5A">Tiny Tapeout (可选流片)</text>

<rect x="220" y="962" width="12" height="12" rx="2" fill="#F1EFE8" stroke="#888780"/><text x="240" y="972" font-size="12" fill="#888780">定义与产出</text>
<rect x="330" y="962" width="12" height="12" rx="2" fill="#FAECE7" stroke="#D85A30"/><text x="350" y="972" font-size="12" fill="#888780">契约</text>
<rect x="410" y="962" width="12" height="12" rx="2" fill="#E1F5EE" stroke="#1D9E75"/><text x="430" y="972" font-size="12" fill="#888780">构建</text>
<rect x="490" y="962" width="12" height="12" rx="2" fill="#EEEDFE" stroke="#534AB7"/><text x="510" y="972" font-size="12" fill="#888780">验证与证明</text>
</svg>
